<svg xmlns="http://www.w3.org/2000/svg" viewBox="0 0 1114.81 185.02"><defs><style>.cls-1{fill:#fff;}</style></defs><g id="Layer_3" data-name="Layer 3"><path class="cls-1" d="M878.86,613H883l2.08,7.17c.52,1.68.86,3.23,1.39,4.92h.1c.53-1.69.9-3.24,1.39-4.92l2-7.17h4l-5.21,15.37h-4.69Z" transform="translate(-382.62 -461.36)"/><path class="cls-1" d="M914.3,613h6.22c3.67,0,6.67,1.14,6.67,4.79s-3,5-6.67,5h-2.31v5.53H914.3Zm5.91,7.08c2,0,3.15-.78,3.15-2.29s-1.1-2-3.15-2h-2v4.32Zm-.4,1.84,2.7-2.22,5.51,8.67h-4.37Z" transform="translate(-382.62 -461.36)"/><path class="cls-1" d="M973.24,612.52h9.62v1.72h-7.31v5.28h6.76v1.7h-6.76v7.19h-2.31Z" transform="translate(-382.62 -461.36)"/><path class="cls-1" d="M996.66,612.52v9.41c0,3.56,1.78,5.07,4.16,5.07,2.65,0,4.35-1.56,4.35-5.07v-9.41h2.33v9.27c0,4.88-2.89,6.88-6.76,6.88-3.66,0-6.41-1.86-6.41-6.79v-9.36Z" transform="translate(-382.62 -461.36)"/><path class="cls-1" d="M1023.79,614.26h-5.43v-1.74h13.22v1.74h-5.46v14.15h-2.33Z" transform="translate(-382.62 -461.36)"/><path class="cls-1" d="M1044.74,612.52v9.41c0,3.56,1.78,5.07,4.17,5.07,2.65,0,4.34-1.56,4.34-5.07v-9.41h2.33v9.27c0,4.88-2.88,6.88-6.75,6.88-3.66,0-6.42-1.86-6.42-6.79v-9.36Z" transform="translate(-382.62 -461.36)"/><path class="cls-1" d="M1068.27,612.73a27.26,27.26,0,0,1,4.43-.33c2.47,0,4.06.4,5.17,1.3a3.76,3.76,0,0,1,1.4,3,4.25,4.25,0,0,1-3.36,4v.07a4,4,0,0,1,2.62,3.21,23.05,23.05,0,0,0,1.38,4.36h-2.39a18.94,18.94,0,0,1-1.19-3.8c-.53-2.19-1.48-3-3.58-3.08h-2.17v6.88h-2.31Zm2.31,7.24h2.36c2.46,0,4-1.2,4-3,0-2.05-1.67-2.94-4.11-3a10.92,10.92,0,0,0-2.28.19Z" transform="translate(-382.62 -461.36)"/><path class="cls-1" d="M1100.63,621h-6.94v5.73h7.74v1.72h-10V612.52H1101v1.72h-7.34v5h6.94Z" transform="translate(-382.62 -461.36)"/><rect class="cls-1" x="752.23" y="29.07" width="19.72" height="110.75"/><path class="cls-1" d="M886.31,461.36v56H814.42v-56h0a20.55,20.55,0,0,0-20.54,20.54V602h20.54v-64.4h71.89V602h20.44V461.36Z" transform="translate(-382.62 -461.36)"/><path class="cls-1" d="M986.59,490.56c-17.07,0-31.45,5.93-42.76,17.64a53.43,53.43,0,0,0-15.41,38c0,14.61,5.47,27.56,16.27,38.47s24.9,16.46,41.9,16.46,31-5.54,41.84-16.46,16.33-23.86,16.33-38.47a53.59,53.59,0,0,0-15.43-38.14C1018,496.46,1003.65,490.56,986.59,490.56Zm38.86,55.85a37,37,0,0,1-5.18,19,35.39,35.39,0,0,1-14,13.54,42.82,42.82,0,0,1-39.26,0A35.51,35.51,0,0,1,953,565.39a36.76,36.76,0,0,1-5.22-19,35.64,35.64,0,0,1,11.44-26.79,39.3,39.3,0,0,1,54.83,0A35.65,35.65,0,0,1,1025.45,546.41Z" transform="translate(-382.62 -461.36)"/><path class="cls-1" d="M1079.13,505.7V490.43H1059.4V601.18h19.73V549.56c.07-.78.49-4.89.79-6.82a38,38,0,0,1,11.59-21.81,39.74,39.74,0,0,1,28.93-11.75h2.65V490.61h-2.65C1104.26,490.61,1090.39,495.68,1079.13,505.7Z" transform="translate(-382.62 -461.36)"/><polygon class="cls-1" points="787.4 28.5 787.4 45.72 842.44 45.72 779.05 140.4 872.97 140.4 872.97 123.07 813.75 123.07 877.35 28.5 787.4 28.5"/><path class="cls-1" d="M1319.77,490.5c-17.07,0-31.45,5.94-42.75,17.64a53.45,53.45,0,0,0-15.42,38c0,14.62,5.48,27.56,16.28,38.47s24.9,16.47,41.89,16.47,31-5.54,41.85-16.46,16.32-23.86,16.32-38.48A53.53,53.53,0,0,0,1362.51,508C1351.22,496.4,1336.84,490.5,1319.77,490.5Zm38.86,55.86a37.1,37.1,0,0,1-5.18,19,35.24,35.24,0,0,1-14,13.53,42.86,42.86,0,0,1-39.26,0,35.58,35.58,0,0,1-14.08-13.54,36.88,36.88,0,0,1-5.22-19,35.66,35.66,0,0,1,11.44-26.8,39.34,39.34,0,0,1,54.84,0A35.66,35.66,0,0,1,1358.63,546.36Z" transform="translate(-382.62 -461.36)"/><path class="cls-1" d="M1497.05,540.33c-.16-1.27-.37-2.53-.61-3.77a56.41,56.41,0,0,0-15.08-28.5,59.21,59.21,0,0,0-20.2-13.84c-.83-.34-1.68-.67-2.53-1a55.17,55.17,0,0,0-7.88-2.21c-.89-.18-1.78-.32-2.68-.44a50.26,50.26,0,0,0-23.76,4.69c-.87.39-1.73.82-2.58,1.26a58.56,58.56,0,0,0-12,8.27V489.55h-19.73V602.06h19.73V548.19c0-11.14,4.25-20.27,12.38-28.15a45.58,45.58,0,0,1,6-4.89c.69-.47,1.38-.91,2.09-1.33,9-4.64,17.17-6,27.33,0,.7.41,1.39.85,2.06,1.31a42.46,42.46,0,0,1,5.83,4.76,37.93,37.93,0,0,1,11.93,24.86l0,57.13h0a20.05,20.05,0,0,0,20-20V548.21Z" transform="translate(-382.62 -461.36)"/><path class="cls-1" d="M424.52,463h69.71a37.4,37.4,0,0,1,26.2,10.7L560.52,514,502,543.42Z" transform="translate(-382.62 -461.36)"/><path class="cls-1" d="M572.78,526.77,641.52,602H577.21a41.43,41.43,0,0,1-29.93-12.79l-33.46-33.63S540.78,537.77,572.78,526.77Z" transform="translate(-382.62 -461.36)"/><path class="cls-1" d="M382.62,646.38S504.56,489.47,767.61,467C767.61,467,545.09,489.47,382.62,646.38Z" transform="translate(-382.62 -461.36)"/><path class="cls-1" d="M667.35,505.35v96.27h16V489.52c-3.13.61-5.85,1.32-8.13,2a11,11,0,0,0-7.85,10.6Z" transform="translate(-382.62 -461.36)"/><path class="cls-1" d="M682.4,558.69s-5.44-57,53.79-61.41v-2.9c-37,0-52.86,13.95-52.86,13.95Z" transform="translate(-382.62 -461.36)"/></g></svg>